# xmcd
#
# Track frame offsets: 
#        150
#        13822
#        22694
#        38783
#        49662
#        62006
#        73528
#        82997
#        93130
#        107820
#        117774
#        134145
#        141520
#        152257
#        164188
#        171421
#        183500
#        195488
#        204387
#        214633
#        229288
#        244252
#        255466
#        264181
#        279077
#        294360
#        302950
#
# Disc length: 4285 seconds
#
# Revision: 0
# Processed by: cddbd v1.5.2PL0 Copyright (c) Steve Scherf et al.
# Submitted via: ExactAudioCopyFreeDBPlugin 1.0
#
DISCID=7c10bb1b
DTITLE=Elvis Presley - ULTIMATE GOSPEL upgrade version
DYEAR=1900
DGENRE=Gospel
TTITLE0=How Great Thou Art
TTITLE1=So High
TTITLE2=Amazing Grace
TTITLE3=Crying in the Chapel
TTITLE4=You'll Never Walk Alone
TTITLE5=Swing Down Sweet Chariot
TTITLE6=In My Father's House
TTITLE7=Milky White Way
TTITLE8=His Hand in Mine
TTITLE9=I Believe in the Man in the Sky
TTITLE10=Where Could I Go But to the Lord
TTITLE11=If the Lord Wasn't Walking by My Side
TTITLE12=Run On
TTITLE13=He Touched Me
TTITLE14=Bosom of Abraham
TTITLE15=Lead Me, Guide Me
TTITLE16=Joshua Fit the Battle
TTITLE17=If We Never Meet Again
TTITLE18=I, John
TTITLE19=Reach Out to Jesus
TTITLE20=Who Am I?
TTITLE21=Help Me
TTITLE22=An Evening Prayer
TTITLE23=Take My Hand, Precious Lord
TTITLE24=(There'll Be) Peace in the Valley (For Me)
TTITLE25=Working On The Building
TTITLE26=Farther Along
EXTD=
EXTT0=
EXTT1=
EXTT2=
EXTT3=
EXTT4=
EXTT5=
EXTT6=
EXTT7=
EXTT8=
EXTT9=
EXTT10=
EXTT11=
EXTT12=
EXTT13=
EXTT14=
EXTT15=
EXTT16=
EXTT17=
EXTT18=
EXTT19=
EXTT20=
EXTT21=
EXTT22=
EXTT23=
EXTT24=
EXTT25=
EXTT26=
PLAYORDER=
